name rise38.3101peak57.3503fall81.6963.mot
datacolumns 19
datarows 23
range 6.38997900000000 6.42664600000000
endheader
time	ground_force1_vx	ground_force1_vy	ground_force1_vz	ground_force1_px	ground_force1_py	ground_force1_pz	ground_force2_vx	ground_force2_vy	ground_force2_vz	ground_force2_px	ground_force2_py	ground_force2_pz	ground_torque1_x	ground_torque1_y	ground_torque1_z	ground_torque2_x	ground_torque2_y	ground_torque2_z	
6.38997900000000	-9.52365900000000	46.89425600000000	-14.19531400000000	0.33864200000000	0.00000000000000	0.10049600000000	-57.01988000000000	773.40033800000003	-55.26380000000000	0.11711900000000	0.00000000000000	-0.07596300000000	0.00000000000000	-9.75906700000000	0.00000000000000	0.00000000000000	-21.33649900000000	0.00000000000000	
6.39165000000000	-10.19733500000000	53.93883400000000	-15.63764200000000	0.34308600000000	0.00000000000000	0.10163900000000	-57.33332200000000	770.93560600000001	-54.86738200000000	0.11650900000000	0.00000000000000	-0.07585300000000	0.00000000000000	-10.86530200000000	0.00000000000000	0.00000000000000	-21.20956500000000	0.00000000000000	
6.39331800000000	-10.68106300000000	61.00510800000000	-16.90733500000000	0.34710600000000	0.00000000000000	0.10269500000000	-57.65246800000000	768.36150199999997	-54.44779600000000	0.11590800000000	0.00000000000000	-0.07573900000000	0.00000000000000	-11.87194100000000	0.00000000000000	0.00000000000000	-21.08159900000000	0.00000000000000	
6.39498500000000	-10.96020500000000	68.02773100000000	-17.98251800000000	0.35076400000000	0.00000000000000	0.10367500000000	-57.97763700000000	765.67668100000003	-54.00526800000000	0.11531500000000	0.00000000000000	-0.07562000000000	0.00000000000000	-12.76204200000000	0.00000000000000	0.00000000000000	-20.95273600000000	0.00000000000000	
6.39665200000000	-11.02957100000000	74.96507600000000	-18.85264200000000	0.35410900000000	0.00000000000000	0.10459000000000	-58.30909200000000	762.87973799999997	-53.54005400000000	0.11472900000000	0.00000000000000	-0.07549800000000	0.00000000000000	-13.52637700000000	0.00000000000000	0.00000000000000	-20.82309900000000	0.00000000000000	
6.39831300000000	-10.89254600000000	81.79901500000000	-19.51767800000000	0.35718300000000	0.00000000000000	0.10544800000000	-58.64703700000000	759.96920999999998	-53.05243700000000	0.11415000000000	0.00000000000000	-0.07537100000000	0.00000000000000	-14.16302200000000	0.00000000000000	0.00000000000000	-20.69280600000000	0.00000000000000	
6.39998100000000	-10.55965900000000	88.53278500000000	-19.98659300000000	0.36002100000000	0.00000000000000	0.10625500000000	-58.99161000000000	756.94357500000001	-52.54272900000000	0.11357900000000	0.00000000000000	-0.07524100000000	0.00000000000000	-14.67642000000000	0.00000000000000	0.00000000000000	-20.56196100000000	0.00000000000000	
6.40164900000000	-10.04682100000000	95.18746200000000	-20.27534200000000	0.36265000000000	0.00000000000000	0.10701800000000	-59.34288200000000	753.80125399999997	-52.01126800000000	0.11301300000000	0.00000000000000	-0.07510700000000	0.00000000000000	-15.07607800000000	0.00000000000000	0.00000000000000	-20.43066100000000	0.00000000000000	
6.40331500000000	-9.37342600000000	101.79756999999999	-20.40464900000000	0.36509400000000	0.00000000000000	0.10774000000000	-59.70085000000000	750.54061000000002	-51.45841900000000	0.11245500000000	0.00000000000000	-0.07496900000000	0.00000000000000	-15.37506800000000	0.00000000000000	0.00000000000000	-20.29898900000000	0.00000000000000	
6.40497900000000	-8.56049800000000	108.40634700000000	-20.39776700000000	0.36737600000000	0.00000000000000	0.10842600000000	-60.06543700000000	747.15995499999997	-50.88457300000000	0.11190200000000	0.00000000000000	-0.07482700000000	0.00000000000000	-15.58850200000000	0.00000000000000	0.00000000000000	-20.16701900000000	0.00000000000000	
6.40664300000000	-7.62902400000000	115.06110400000000	-20.27843300000000	0.36951100000000	0.00000000000000	0.10908000000000	-60.43648500000000	743.65754900000002	-50.29014700000000	0.11135500000000	0.00000000000000	-0.07468200000000	0.00000000000000	-15.73209900000000	0.00000000000000	0.00000000000000	-20.03481000000000	0.00000000000000	
6.40832200000000	-6.59858500000000	121.80903300000000	-20.06912800000000	0.37151500000000	0.00000000000000	0.10970300000000	-60.81375400000000	740.03160400000002	-49.67558300000000	0.11081400000000	0.00000000000000	-0.07453200000000	0.00000000000000	-15.82095200000000	0.00000000000000	0.00000000000000	-19.90241000000000	0.00000000000000	
6.40997800000000	-5.48632300000000	128.69372600000000	-19.78973300000000	0.37340200000000	0.00000000000000	0.11030000000000	-61.19691600000000	736.28029100000003	-49.04134600000000	0.11027800000000	0.00000000000000	-0.07437900000000	0.00000000000000	-15.86855100000000	0.00000000000000	0.00000000000000	-19.76985400000000	0.00000000000000	
6.41164900000000	-4.30628200000000	135.75252300000000	-19.45661500000000	0.37518100000000	0.00000000000000	0.11087100000000	-61.58555700000000	732.40174300000001	-48.38792600000000	0.10974700000000	0.00000000000000	-0.07422300000000	0.00000000000000	-15.88610100000000	0.00000000000000	0.00000000000000	-19.63716100000000	0.00000000000000	
6.41331100000000	-3.06910200000000	143.01478000000000	-19.08214300000000	0.37686400000000	0.00000000000000	0.11141800000000	-61.97917300000000	728.39405899999997	-47.71583700000000	0.10922200000000	0.00000000000000	-0.07406300000000	0.00000000000000	-15.88213700000000	0.00000000000000	0.00000000000000	-19.50434000000000	0.00000000000000	
6.41498700000000	-1.78201800000000	150.50098800000001	-18.67458200000000	0.37845800000000	0.00000000000000	0.11194500000000	-62.37716700000000	724.25531599999999	-47.02561500000000	0.10870100000000	0.00000000000000	-0.07389900000000	0.00000000000000	-15.86239600000000	0.00000000000000	0.00000000000000	-19.37138200000000	0.00000000000000	
6.41664600000000	-0.44912300000000	158.22268000000000	-18.23831700000000	0.37997100000000	0.00000000000000	0.11245100000000	-62.77884900000000	719.98357299999998	-46.31782100000000	0.10818600000000	0.00000000000000	-0.07373200000000	0.00000000000000	-15.82993700000000	0.00000000000000	0.00000000000000	-19.23826700000000	0.00000000000000	
6.41831100000000	0.92818000000000	166.18297400000000	-17.77432400000000	0.38140900000000	0.00000000000000	0.11293800000000	-63.18343400000000	715.57688299999995	-45.59303400000000	0.10767500000000	0.00000000000000	-0.07356100000000	0.00000000000000	-15.78543000000000	0.00000000000000	0.00000000000000	-19.10495900000000	0.00000000000000	
6.41997800000000	2.35060700000000	174.37759900000000	-17.28081000000000	0.38277800000000	0.00000000000000	0.11340700000000	-63.59004400000000	711.03330000000005	-44.85185900000000	0.10716800000000	0.00000000000000	-0.07338700000000	0.00000000000000	-15.72757500000000	0.00000000000000	0.00000000000000	-18.97140600000000	0.00000000000000	
6.42164800000000	3.82036300000000	182.79624000000001	-16.75394000000000	0.38408300000000	0.00000000000000	0.11386000000000	-63.99770600000000	706.35089100000005	-44.09491900000000	0.10666600000000	0.00000000000000	-0.07320900000000	0.00000000000000	-15.65359000000000	0.00000000000000	0.00000000000000	-18.83754600000000	0.00000000000000	
6.42331600000000	5.34051400000000	191.42403600000000	-16.18858600000000	0.38532800000000	0.00000000000000	0.11429700000000	-64.40535300000001	701.52775199999996	-43.32285800000000	0.10616900000000	0.00000000000000	-0.07302800000000	0.00000000000000	-15.55972700000000	0.00000000000000	0.00000000000000	-18.70329700000000	0.00000000000000	
6.42498000000000	6.91440600000000	200.24309900000000	-15.57903400000000	0.38651700000000	0.00000000000000	0.11471800000000	-64.81182500000000	696.56201799999997	-42.53634300000000	0.10567600000000	0.00000000000000	-0.07284400000000	0.00000000000000	-15.44175300000000	0.00000000000000	0.00000000000000	-18.56856800000000	0.00000000000000	
6.42664600000000	8.54516700000000	209.23392999999999	-14.91960800000000	0.38765300000000	0.00000000000000	0.11512600000000	-65.21587200000000	691.45187699999997	-41.73605500000000	0.10518800000000	0.00000000000000	-0.07265700000000	0.00000000000000	-15.29539600000000	0.00000000000000	0.00000000000000	-18.43325000000000	0.00000000000000	
